<svg width="115" height="38" viewBox="0 0 115 38" fill="none" xmlns="http://www.w3.org/2000/svg">
<mask id="mask0_4_33" style="mask-type:luminance" maskUnits="userSpaceOnUse" x="0" y="0" width="115" height="38">
<path d="M0.5 1.90735e-05H114.5V38H0.5V1.90735e-05Z" fill="white"/>
</mask>
<g mask="url(#mask0_4_33)">
<path d="M51.3637 34.1993C51.3008 34.1986 51.2385 34.2106 51.1803 34.2346C51.1222 34.2585 51.0695 34.294 51.0254 34.3389C50.9793 34.3818 50.9426 34.4338 50.9177 34.4917C50.8927 34.5495 50.8801 34.612 50.8806 34.675C50.88 34.7384 50.8925 34.8012 50.9172 34.8595C50.942 34.9179 50.9785 34.9704 51.0245 35.014C51.0681 35.0599 51.1206 35.0964 51.1787 35.1213C51.2369 35.1463 51.2995 35.1591 51.3627 35.1591C51.4258 35.1597 51.4883 35.1471 51.5462 35.1221C51.6041 35.0971 51.6562 35.0603 51.6991 35.014C51.7439 34.9698 51.7793 34.917 51.8032 34.8587C51.8271 34.8005 51.8391 34.738 51.8384 34.675C51.8392 34.6124 51.8273 34.5503 51.8034 34.4925C51.7794 34.4347 51.7439 34.3825 51.6991 34.3389C51.6556 34.294 51.6034 34.2584 51.5458 34.2344C51.4881 34.2104 51.4261 34.1985 51.3637 34.1993Z" fill="#1A3353"/>
<path d="M52.6777 34.1993C52.6148 34.1986 52.5525 34.2106 52.4944 34.2346C52.4362 34.2585 52.3835 34.294 52.3394 34.3389C52.2933 34.3818 52.2566 34.4338 52.2317 34.4917C52.2068 34.5495 52.1941 34.612 52.1946 34.675C52.1945 34.7383 52.2071 34.801 52.2319 34.8593C52.2566 34.9175 52.2929 34.9702 52.3385 35.014C52.3821 35.0599 52.4346 35.0964 52.4928 35.1213C52.5509 35.1463 52.6135 35.1591 52.6768 35.1591C52.7398 35.1597 52.8023 35.1471 52.8602 35.1221C52.9182 35.0971 52.9702 35.0603 53.0131 35.014C53.0579 34.9698 53.0933 34.917 53.1172 34.8587C53.1412 34.8005 53.1531 34.738 53.1524 34.675C53.1532 34.6124 53.1413 34.5503 53.1174 34.4925C53.0934 34.4347 53.058 34.3825 53.0131 34.3389C52.9697 34.294 52.9175 34.2584 52.8598 34.2344C52.8021 34.2104 52.7401 34.1985 52.6777 34.1993Z" fill="#1A3353"/>
<path d="M75.4634 32.5841L73.9356 31.1543C73.9566 30.9017 74.038 30.6579 74.1729 30.4436C74.3064 30.2267 74.4925 30.0473 74.7139 29.922C74.9353 29.7967 75.1858 29.7321 75.44 29.7347C75.6941 29.7332 75.9443 29.7978 76.166 29.922C76.3883 30.0472 76.5754 30.2266 76.7099 30.4436C76.8382 30.6533 76.9218 30.8872 76.9556 31.1308L75.4606 32.5831L75.4634 32.5841ZM68.5159 32.6337C68.0024 32.6812 67.4897 32.5353 67.0778 32.2245C66.9368 32.0934 66.8251 31.9338 66.7502 31.7563C66.6753 31.5787 66.6388 31.3872 66.6433 31.1945C66.639 30.9997 66.6755 30.8062 66.7503 30.6264C66.8251 30.4466 66.9367 30.2845 67.0778 30.1505C67.4805 29.8341 67.9885 29.6838 68.4981 29.7301L69.213 29.701L69.242 32.6328L68.5159 32.6337ZM80.2813 27.8583L79.4823 27.8873L79.5113 32.6337H76.5632L77.7779 31.497V31.2713C77.7825 30.8531 77.6747 30.4414 77.4658 30.0793C77.2615 29.725 76.9696 29.4294 76.6183 29.2207C76.2613 29.0114 75.8546 28.9024 75.4409 28.9051C75.03 28.9024 74.6259 29.0114 74.272 29.2207C73.9187 29.428 73.6263 29.7252 73.4244 30.0821C73.2162 30.4434 73.1085 30.8541 73.1123 31.2713L73.1236 31.5204L74.3243 32.6365L70.039 32.6655L70.0072 28.9079H68.5122C67.9819 28.8883 67.4547 28.9979 66.976 29.2272C66.6041 29.412 66.2974 29.706 66.0967 30.07C65.9128 30.4193 65.8184 30.8089 65.8219 31.2039C65.8208 31.5042 65.8757 31.802 65.9836 32.0822C66.0611 32.284 66.1737 32.4704 66.3163 32.6328L62.5459 32.6618L62.5141 27.8602L61.7151 27.8892L61.7469 33.439H74.8485C74.9719 33.4438 75.0951 33.4231 75.2101 33.3781C75.3061 33.3303 75.3798 33.2471 75.4157 33.1459C75.4812 33.2383 75.566 33.3154 75.6643 33.3715C75.78 33.4215 75.9056 33.4443 76.0315 33.438H80.313L80.2841 27.862L80.2813 27.8583Z" fill="#1A3353"/>
<path d="M67.2834 28.4004C67.3464 28.4012 67.4088 28.3887 67.4666 28.3636C67.5243 28.3386 67.5762 28.3017 67.6189 28.2553C67.6641 28.2107 67.6998 28.1572 67.7237 28.0983C67.7476 28.0394 67.7593 27.9762 67.7581 27.9126C67.7589 27.85 67.747 27.7879 67.7231 27.7301C67.6991 27.6723 67.6637 27.62 67.6189 27.5764C67.5747 27.5329 67.5223 27.4987 67.4646 27.476C67.407 27.4534 67.3453 27.4426 67.2834 27.4444C67.2206 27.4436 67.1583 27.4554 67.1002 27.4792C67.0421 27.503 66.9893 27.5383 66.9451 27.583C66.899 27.6259 66.8624 27.6779 66.8374 27.7358C66.8125 27.7937 66.7998 27.8561 66.8003 27.9191C66.8003 27.9825 66.8131 28.0453 66.838 28.1035C66.8629 28.1618 66.8994 28.2144 66.9451 28.2581C66.9888 28.304 67.0413 28.3405 67.0994 28.3654C67.1576 28.3904 67.2202 28.4033 67.2834 28.4032" fill="#1A3353"/>
<path d="M68.5972 28.4004C68.6602 28.4012 68.7226 28.3887 68.7804 28.3636C68.8382 28.3386 68.8901 28.3017 68.9327 28.2553C68.9779 28.2107 69.0136 28.1572 69.0375 28.0983C69.0615 28.0394 69.0732 27.9762 69.0719 27.9126C69.0728 27.85 69.0609 27.7879 69.0369 27.7301C69.013 27.6723 68.9775 27.62 68.9327 27.5764C68.8886 27.5329 68.8361 27.4987 68.7785 27.476C68.7208 27.4534 68.6592 27.4426 68.5972 27.4444C68.5345 27.4436 68.4722 27.4554 68.414 27.4792C68.3559 27.503 68.3032 27.5383 68.259 27.583C68.2129 27.6259 68.1762 27.6779 68.1513 27.7358C68.1263 27.7937 68.1137 27.8561 68.1141 27.9191C68.1141 27.9825 68.127 28.0453 68.1519 28.1035C68.1768 28.1618 68.2132 28.2144 68.259 28.2581C68.3026 28.304 68.3551 28.3405 68.4133 28.3654C68.4714 28.3904 68.534 28.4033 68.5972 28.4032" fill="#1A3353"/>
<path d="M81.41 27.8902L81.4417 33.44H82.2379L82.2089 27.8612L81.41 27.8902Z" fill="#1A3353"/>
<path d="M96.0564 33.9812C95.9936 33.9804 95.9312 33.9924 95.8731 34.0164C95.815 34.0404 95.7623 34.0758 95.7182 34.1207C95.6721 34.1636 95.6354 34.2156 95.6104 34.2735C95.5855 34.3314 95.5729 34.3938 95.5733 34.4568C95.5727 34.5213 95.5852 34.5852 95.6101 34.6446C95.635 34.704 95.6718 34.7577 95.7182 34.8024C95.7624 34.847 95.8151 34.8824 95.8732 34.9062C95.9313 34.93 95.9936 34.9418 96.0564 34.9409C96.1193 34.9414 96.1816 34.9287 96.2394 34.9038C96.2972 34.8788 96.3491 34.842 96.3919 34.7958C96.4367 34.7516 96.4721 34.6988 96.496 34.6405C96.5199 34.5823 96.5319 34.5198 96.5311 34.4568C96.532 34.3943 96.52 34.3322 96.4961 34.2744C96.4722 34.2166 96.4367 34.1643 96.3919 34.1207C96.3484 34.0758 96.2962 34.0402 96.2385 34.0163C96.1808 33.9923 96.1189 33.9803 96.0564 33.9812Z" fill="#1A3353"/>
<path d="M111.747 27.8902L111.776 32.6337L108.981 32.6628L108.952 28.9024L108.153 28.9314L108.182 32.6337H107.332C107.186 32.6436 107.04 32.621 106.904 32.5674C106.768 32.5138 106.645 32.4306 106.545 32.3238C106.345 32.0502 106.248 31.7138 106.273 31.3753L106.244 29.1571L105.445 29.1861V31.3753C105.47 31.7114 105.385 32.0464 105.202 32.3294C105.125 32.4295 105.025 32.5092 104.91 32.5617C104.795 32.6143 104.669 32.638 104.543 32.6309L103.564 32.66L103.535 29.1543L102.736 29.1833L102.765 32.6309H98.4942C98.3899 32.6382 98.2857 32.6162 98.1933 32.5673C98.1213 32.5069 98.0713 32.4242 98.0513 32.3322C98.0111 32.1983 97.9578 31.9699 97.9008 31.6534C97.8301 31.1786 97.6887 30.7171 97.4813 30.2844C97.3111 29.9406 97.0572 29.6453 96.7431 29.4258C96.476 29.2469 96.1805 29.1146 95.8694 29.0344C95.5512 28.951 95.2236 28.9091 94.8948 28.9099C94.5631 28.9077 94.2325 28.9477 93.9108 29.0288L93.8267 29.0784L94.0033 29.8556L94.0753 29.835C94.3274 29.7626 94.5886 29.7273 94.8509 29.7301C95.1044 29.7309 95.357 29.7623 95.6031 29.8237C95.8329 29.8791 96.0514 29.9742 96.2488 30.1047C96.471 30.256 96.6487 30.4642 96.7636 30.7077C96.9209 31.0522 97.0291 31.4172 97.0851 31.792C97.1056 31.8996 97.1196 31.9792 97.1253 32.0438C97.1464 32.2483 97.2 32.4481 97.2841 32.6356L90.5076 32.6646L90.4787 27.863L89.6797 27.8921V32.6422C89.6797 34.0074 89.0836 34.6722 87.8567 34.6722C87.3859 34.6882 86.9237 34.5436 86.5457 34.2621C86.3611 34.0869 86.2193 33.8716 86.131 33.6328C86.0427 33.394 86.0103 33.138 86.0364 32.8847C86.0488 32.3839 86.1306 31.8872 86.2794 31.409V31.2882L85.472 31.3088L85.4571 31.3612C85.3086 31.8744 85.2278 32.4048 85.2169 32.939C85.1852 33.2998 85.238 33.663 85.3712 33.9997C85.5044 34.3364 85.7143 34.6372 85.9841 34.8782C86.5223 35.2815 87.1811 35.4902 87.8529 35.47C88.4774 35.501 89.0935 35.3155 89.5975 34.9447C89.8253 34.7599 90.0144 34.5319 90.1539 34.2736C90.2934 34.0154 90.3806 33.7321 90.4105 33.4399H104.531C104.836 33.4459 105.137 33.3689 105.401 33.2171C105.616 33.0993 105.786 32.9154 105.887 32.6927C106.012 32.9135 106.194 33.0968 106.413 33.2236C106.691 33.3747 107.003 33.4496 107.319 33.4409L112.559 33.4118L112.53 27.8621L111.731 27.8911L111.747 27.8902Z" fill="#1A3353"/>
<path d="M113.675 27.8903L113.704 33.44H114.5L114.471 27.8612L113.675 27.8903Z" fill="#1A3353"/>
<path d="M56.0749 28.9858C55.8656 28.9597 55.6532 28.9826 55.4542 29.0525C55.2552 29.1225 55.075 29.2377 54.9279 29.389C54.7807 29.5404 54.6705 29.7239 54.6059 29.925C54.5413 30.1262 54.5241 30.3396 54.5555 30.5486V32.3351L54.5873 32.6629H50.2525C50.0141 32.6838 49.7771 32.6098 49.5928 32.4569C49.5188 32.3708 49.4625 32.2709 49.4272 32.1629C49.3919 32.0549 49.3783 31.9409 49.3872 31.8276L49.3592 29.7574L48.5603 29.7864V31.8745C48.5286 32.0835 48.5457 32.297 48.6102 32.4982C48.6747 32.6995 48.7849 32.883 48.9321 33.0345C49.0794 33.1859 49.2596 33.301 49.4587 33.3709C49.6578 33.4408 49.8703 33.4635 50.0797 33.4372H55.3835V30.5926C55.3741 30.4789 55.3874 30.3645 55.4225 30.256C55.4576 30.1475 55.5139 30.0471 55.5881 29.9606C55.7724 29.8077 56.0094 29.7337 56.2478 29.7546L57.2757 29.7255L57.3046 32.8623L58.1008 32.8333L58.0718 28.9774H56.0721L56.0749 28.9858Z" fill="#1A3353"/>
<path d="M59.6192 29.4614H60.4349V35.1591H59.6192V29.4614Z" fill="#1A3353"/>
<path d="M63.201 12.9758C62.7114 13.3714 62.1492 13.667 61.5461 13.8457C60.8139 14.0576 60.0543 14.1592 59.2922 14.1472H52.3149V5.72566H59.2922C60.6753 5.6299 62.0507 5.99892 63.201 6.77437C63.6473 7.13633 64.0022 7.59867 64.2368 8.12384C64.4714 8.64901 64.5791 9.22221 64.5512 9.79692C64.5584 10.4084 64.4461 11.0153 64.2204 11.5835C63.9991 12.1232 63.6486 12.6001 63.2 12.9721L63.201 12.9758ZM63.5747 16.7166L63.9289 16.5817C64.667 16.3092 65.36 15.927 65.9846 15.4478C66.5424 15.013 67.0259 14.4903 67.4161 13.9C67.7987 13.3161 68.0848 12.6743 68.2637 11.9992C68.4521 11.2814 68.5464 10.542 68.544 9.79973C68.5603 8.75145 68.3698 7.71027 67.9833 6.73599C67.6154 5.85231 67.0339 5.07424 66.2911 4.47188C65.4318 3.79834 64.4437 3.30882 63.3878 3.03365C62.0156 2.67488 60.6009 2.5054 59.1829 2.52989H48.5604V23.4443H52.314V17.3196L59.4932 17.3346L63.5299 23.448H68.131L63.5654 16.7194L63.5747 16.7166Z" fill="#1A3353"/>
<path d="M90.1451 20.2316H75.9297V14.6987H88.2641V11.708H75.9297V5.75652H89.8582V2.53172H72.1733V23.4433H90.1451V20.2316Z" fill="#1A3353"/>
<path d="M110.179 11.5882C109.958 12.1281 109.608 12.605 109.159 12.9768C108.67 13.3723 108.108 13.6678 107.505 13.8466C106.773 14.0585 106.013 14.1601 105.251 14.1481H98.2737V5.72658H105.251C106.634 5.63096 108.009 5.99998 109.159 6.77529C109.605 7.13725 109.96 7.59959 110.195 8.12476C110.429 8.64993 110.537 9.22314 110.509 9.79784C110.517 10.4096 110.404 11.017 110.176 11.5844L110.179 11.5882ZM113.938 6.73785C113.571 5.85417 112.989 5.0761 112.246 4.47374C111.389 3.8012 110.403 3.31173 109.349 3.03551C107.977 2.6769 106.563 2.50742 105.145 2.53175H94.5229V23.4461H98.2765V17.3214L105.456 17.3364L109.495 23.4499H114.096L109.531 16.7212L109.885 16.5864C110.623 16.3139 111.316 15.9316 111.941 15.4525C112.501 15.0193 112.987 14.4967 113.379 13.9056C113.761 13.3217 114.047 12.6799 114.226 12.0048C114.415 11.287 114.509 10.5476 114.507 9.80533C114.525 8.7569 114.334 7.71537 113.946 6.74159L113.938 6.73785Z" fill="#1A3353"/>
<path d="M30.4929 22.876H23.2922V30.0916H26.4198V26.0128H30.4929V22.876Z" fill="#1A3353"/>
<path d="M28.9429 28.5288H31.4724V31.0569H28.9429V28.5288Z" fill="#1A3353"/>
<path d="M27.6833 33.9306H29.4877V35.7387H27.6833V33.9306Z" fill="#1A3353"/>
<path d="M34.2197 27.1719H36.024V28.98H34.2197V27.1719Z" fill="#1A3353"/>
<path d="M21.9722 32.3623H24.5017V35.4354H21.9722V32.3623Z" fill="#1A3353"/>
<path d="M32.889 21.6802H35.9558V24.2149H32.889V21.6802Z" fill="#1A3353"/>
<path d="M15.6506 30.0916V22.876H8.44995V26.0128H12.5203V30.0916H15.6506Z" fill="#1A3353"/>
<path d="M7.47076 28.5288H9.99372V31.0569H7.47076V28.5288Z" fill="#1A3353"/>
<path d="M9.45563 33.9306H11.26V35.7387H9.45563V33.9306Z" fill="#1A3353"/>
<path d="M18.6876 34.8388V37.9999H20.2555V34.8388H19.4706H18.6876Z" fill="#1A3353"/>
<path d="M3.65462 19.906V18.0979H0.5V19.906H3.65462Z" fill="#1A3353"/>
<path d="M2.92395 27.1719H4.72833V28.98H2.92395V27.1719Z" fill="#1A3353"/>
<path d="M14.4418 32.3623H16.9647V35.4354H14.4418V32.3623Z" fill="#1A3353"/>
<path d="M2.98657 21.6802H6.05336V24.2149H2.98657V21.6802Z" fill="#1A3353"/>
<path d="M17.9625 26.4734V31.6233H20.9779V26.4734H17.9625Z" fill="#1A3353"/>
<path d="M12.0578 19.0004V17.4442H6.91846V20.5567H12.0578V19.0004Z" fill="#1A3353"/>
<path d="M23.2922 7.90952V15.1251H30.4929V11.9911H26.4198V7.90952H23.2922Z" fill="#1A3353"/>
<path d="M28.9429 6.94041H31.4724V9.4751H28.9429V6.94041Z" fill="#1A3353"/>
<path d="M27.6833 2.26585H29.4877V4.07395H27.6833V2.26585Z" fill="#1A3353"/>
<path d="M20.2574 3.16111V-1.90735e-05H18.6876V3.16111H20.2574Z" fill="#1A3353"/>
<path d="M38.4432 18.098H35.2886V19.9061H38.4432V18.098Z" fill="#1A3353"/>
<path d="M34.2197 9.02073H36.024V10.8288H34.2197V9.02073Z" fill="#1A3353"/>
<path d="M21.9722 2.56468H24.5017V5.63777H21.9722V2.56468Z" fill="#1A3353"/>
<path d="M32.889 13.7898H35.9558V16.3245H32.889V13.7898Z" fill="#1A3353"/>
<path d="M26.8828 17.4442V20.5567H32.0221V19.0004V17.4442H26.8828Z" fill="#1A3353"/>
<path d="M8.45001 15.124H15.6507V7.90846H12.5204V11.99H8.45001V15.124Z" fill="#1A3353"/>
<path d="M7.47076 6.94041H9.99372V9.4751H7.47076V6.94041Z" fill="#1A3353"/>
<path d="M9.45563 2.26585H11.26V4.07395H9.45563V2.26585Z" fill="#1A3353"/>
<path d="M2.92395 9.02073H4.72833V10.8288H2.92395V9.02073Z" fill="#1A3353"/>
<path d="M14.4418 2.56468H16.9647V5.63777H14.4418V2.56468Z" fill="#1A3353"/>
<path d="M2.98657 13.7898H6.05336V16.3245H2.98657V13.7898Z" fill="#1A3353"/>
<path d="M17.9625 6.37636V11.5263H20.9779V6.37636H17.9625Z" fill="#1A3353"/>
</g>
</svg>
